<?xml version="1.0" ?>
<!DOCTYPE svg  PUBLIC '-//W3C//DTD SVG 1.1//EN'  'http://www.w3.org/Graphics/SVG/1.1/DTD/svg11.dtd'>
<!-- Uploaded to: SVG Repo, www.svgrepo.com, Generator: SVG Repo Mixer Tools -->
<svg width="800px" height="800px" viewBox="0 0 512 512" enable-background="new 0 0 512 512" id="Layer_1" version="1.1" xml:space="preserve" xmlns="http://www.w3.org/2000/svg" xmlns:xlink="http://www.w3.org/1999/xlink">
<g>
<g>
<path d="M426.46,208.729c0,55.061-44.63,99.69-99.681,99.69c-17.189,0-33.359-4.35-47.47-12.01    c-3.22-33.351-23.3-61.761-51.609-76.62c-0.4-3.63-0.61-7.32-0.61-11.061c0-55.05,44.63-99.68,99.689-99.68    C381.83,109.05,426.46,153.68,426.46,208.729z" fill="#3C74BA"/>
<path d="M326.779,318.42c-18.244,0-36.308-4.572-52.241-13.222c-2.921-1.585-4.863-4.519-5.183-7.827    c-2.829-29.301-20.139-54.993-46.303-68.727c-2.944-1.546-4.928-4.453-5.292-7.758c-0.445-4.034-0.671-8.125-0.671-12.157    c0-60.478,49.207-109.68,109.689-109.68c60.478,0,109.681,49.202,109.681,109.68C436.46,269.213,387.257,318.42,326.779,318.42z     M288.583,289.9c11.869,5.586,24.972,8.52,38.197,8.52c49.45,0,89.681-40.235,89.681-89.69c0-49.449-40.23-89.68-89.681-89.68    c-49.455,0-89.689,40.23-89.689,89.68c0,1.634,0.045,3.28,0.135,4.928C265.048,230.131,283.83,258.013,288.583,289.9z" fill="#444B54"/>
</g>
<g>
<path d="M328.861,275.882c-25.452,0-46.158-20.703-46.158-46.15c0-5.522,4.477-10,10-10h72.307    c5.523,0,10,4.478,10,10C375.01,255.179,354.308,275.882,328.861,275.882z M304.691,239.731c3.936,9.473,13.288,16.15,24.17,16.15    c10.879,0,20.227-6.678,24.161-16.15H304.691z" fill="#444B54"/>
</g>
<g>
<path d="M216.76,362.62c-0.006,0-0.013,0-0.02,0H148.56c-5.523,0-10-4.478-10-10    c0-24.312,19.779-44.09,44.091-44.09c24.069,0,43.696,19.387,44.084,43.365c0.017,0.239,0.026,0.48,0.026,0.725    C226.76,358.143,222.283,362.62,216.76,362.62z M160.734,342.62h43.831c-3.805-8.306-12.197-14.09-21.915-14.09    S164.54,334.314,160.734,342.62z" fill="#444B54"/>
</g>
<g>
<path d="M149.27,294.91c-13.096,0-23.75-10.654-23.75-23.75c0-13.091,10.654-23.74,23.75-23.74    c13.09,0,23.74,10.649,23.74,23.74C173.01,284.256,162.36,294.91,149.27,294.91z M149.27,267.42c-2.068,0-3.75,1.678-3.75,3.74    c0,2.067,1.682,3.75,3.75,3.75c2.063,0,3.74-1.683,3.74-3.75C153.01,269.098,151.332,267.42,149.27,267.42z" fill="#444B54"/>
</g>
<g>
<path d="M216.76,362.62c-0.006,0-0.013,0-0.02,0H148.56c-5.523,0-10-4.478-10-10    c0-24.312,19.779-44.09,44.091-44.09c24.069,0,43.696,19.387,44.084,43.365c0.017,0.239,0.026,0.48,0.026,0.725    C226.76,358.143,222.283,362.62,216.76,362.62z M160.734,342.62h43.831c-3.805-8.306-12.197-14.09-21.915-14.09    S164.54,334.314,160.734,342.62z" fill="#444B54"/>
</g>
<g>
<path d="M216.03,294.91c-13.09,0-23.74-10.654-23.74-23.75c0-13.091,10.65-23.74,23.74-23.74    c13.096,0,23.75,10.649,23.75,23.74C239.78,284.256,229.126,294.91,216.03,294.91z M216.03,267.42c-2.063,0-3.74,1.678-3.74,3.74    c0,2.067,1.678,3.75,3.74,3.75c2.068,0,3.75-1.683,3.75-3.75C219.78,269.098,218.098,267.42,216.03,267.42z" fill="#444B54"/>
</g>
<g>
<path d="M182.65,412.95c-59.061,0-107.11-48.05-107.11-107.11s48.049-107.11,107.11-107.11    c17.278,0,34.461,4.22,49.692,12.203c32.165,16.883,53.441,48.477,56.92,84.517c0.33,3.393,0.497,6.891,0.497,10.391    C289.76,364.9,241.711,412.95,182.65,412.95z M182.65,218.729c-48.033,0-87.11,39.077-87.11,87.11s39.078,87.11,87.11,87.11    c48.032,0,87.109-39.077,87.109-87.11c0-2.857-0.136-5.705-0.403-8.464c-2.829-29.306-20.139-54.998-46.304-68.731    C210.503,222.066,196.908,218.729,182.65,218.729z M216.74,362.62H148.56c-5.523,0-10-4.478-10-10    c0-24.312,19.779-44.09,44.091-44.09c24.311,0,44.09,19.778,44.09,44.09C226.74,358.143,222.263,362.62,216.74,362.62z     M160.734,342.62h43.831c-3.805-8.306-12.197-14.09-21.915-14.09S164.54,334.314,160.734,342.62z M216.03,294.91    c-13.09,0-23.74-10.654-23.74-23.75c0-13.091,10.65-23.74,23.74-23.74c13.096,0,23.75,10.649,23.75,23.74    C239.78,284.256,229.126,294.91,216.03,294.91z M216.03,267.42c-2.063,0-3.74,1.678-3.74,3.74c0,2.067,1.678,3.75,3.74,3.75    c2.068,0,3.75-1.683,3.75-3.75C219.78,269.098,218.098,267.42,216.03,267.42z M149.27,294.91c-13.096,0-23.75-10.654-23.75-23.75    c0-13.091,10.654-23.74,23.75-23.74c13.09,0,23.74,10.649,23.74,23.74C173.01,284.256,162.36,294.91,149.27,294.91z     M149.27,267.42c-2.068,0-3.75,1.678-3.75,3.74c0,2.067,1.682,3.75,3.75,3.75c2.063,0,3.74-1.683,3.74-3.75    C153.01,269.098,151.332,267.42,149.27,267.42z" fill="#444B54"/>
</g>
<g>
<path d="M326.779,318.42c-18.244,0-36.308-4.572-52.241-13.222c-2.921-1.585-4.863-4.519-5.183-7.827    c-2.829-29.301-20.139-54.993-46.303-68.727c-2.944-1.546-4.928-4.453-5.292-7.758c-0.445-4.034-0.671-8.125-0.671-12.157    c0-60.478,49.207-109.68,109.689-109.68c60.478,0,109.681,49.202,109.681,109.68C436.46,269.213,387.257,318.42,326.779,318.42z     M288.583,289.9c11.869,5.586,24.972,8.52,38.197,8.52c49.45,0,89.681-40.235,89.681-89.69c0-49.449-40.23-89.68-89.681-89.68    c-49.455,0-89.689,40.23-89.689,89.68c0,1.634,0.045,3.28,0.135,4.928C265.048,230.131,283.83,258.013,288.583,289.9z" fill="#444B54"/>
</g>
<g>
<path d="M149.27,294.91c-13.096,0-23.75-10.654-23.75-23.75c0-13.091,10.654-23.74,23.75-23.74    c13.09,0,23.74,10.649,23.74,23.74C173.01,284.256,162.36,294.91,149.27,294.91z M149.27,267.42c-2.068,0-3.75,1.678-3.75,3.74    c0,2.067,1.682,3.75,3.75,3.75c2.063,0,3.74-1.683,3.74-3.75C153.01,269.098,151.332,267.42,149.27,267.42z" fill="#444B54"/>
</g>
<g>
<path d="M216.03,294.91c-13.09,0-23.74-10.654-23.74-23.75c0-13.091,10.65-23.74,23.74-23.74    c13.096,0,23.75,10.649,23.75,23.74C239.78,284.256,229.126,294.91,216.03,294.91z M216.03,267.42c-2.063,0-3.74,1.678-3.74,3.74    c0,2.067,1.678,3.75,3.74,3.75c2.068,0,3.75-1.683,3.75-3.75C219.78,269.098,218.098,267.42,216.03,267.42z" fill="#444B54"/>
</g>
<g>
<path d="M292.29,197.455c-13.342,0-24.197-10.855-24.197-24.199s10.855-24.2,24.197-24.2    c13.344,0,24.2,10.856,24.2,24.2S305.634,197.455,292.29,197.455z M292.29,169.056c-2.314,0-4.197,1.884-4.197,4.2    c0,2.315,1.883,4.199,4.197,4.199c2.316,0,4.2-1.884,4.2-4.199C296.49,170.939,294.606,169.056,292.29,169.056z" fill="#444B54"/>
</g>
<g>
<path d="M361.257,197.455c-13.343,0-24.198-10.855-24.198-24.199s10.855-24.2,24.198-24.2    c13.343,0,24.199,10.856,24.199,24.2S374.6,197.455,361.257,197.455z M361.257,169.056c-2.315,0-4.198,1.884-4.198,4.2    c0,2.315,1.883,4.199,4.198,4.199c2.315,0,4.199-1.884,4.199-4.199C365.456,170.939,363.572,169.056,361.257,169.056z" fill="#444B54"/>
</g>
<g>
<path d="M292.703,229.731c0,19.968,16.185,36.15,36.158,36.15c19.964,0,36.148-16.183,36.148-36.15H292.703z" fill="#D9DCE1"/>
<path d="M328.861,275.882c-25.452,0-46.158-20.703-46.158-46.15c0-5.522,4.477-10,10-10h72.307    c5.523,0,10,4.478,10,10C375.01,255.179,354.308,275.882,328.861,275.882z M304.691,239.731c3.936,9.473,13.288,16.15,24.17,16.15    c10.879,0,20.227-6.678,24.161-16.15H304.691z" fill="#444B54"/>
</g>
<g>
<path d="M216.76,362.62c-0.006,0-0.013,0-0.02,0H148.56c-5.523,0-10-4.478-10-10    c0-24.312,19.779-44.09,44.091-44.09c24.069,0,43.696,19.387,44.084,43.365c0.017,0.239,0.026,0.48,0.026,0.725    C226.76,358.143,222.283,362.62,216.76,362.62z M160.734,342.62h43.831c-3.805-8.306-12.197-14.09-21.915-14.09    S164.54,334.314,160.734,342.62z" fill="#444B54"/>
</g>
<g>
<path d="M149.27,294.91c-13.096,0-23.75-10.654-23.75-23.75c0-13.091,10.654-23.74,23.75-23.74    c13.09,0,23.74,10.649,23.74,23.74C173.01,284.256,162.36,294.91,149.27,294.91z M149.27,267.42c-2.068,0-3.75,1.678-3.75,3.74    c0,2.067,1.682,3.75,3.75,3.75c2.063,0,3.74-1.683,3.74-3.75C153.01,269.098,151.332,267.42,149.27,267.42z" fill="#444B54"/>
</g>
<g>
<path d="M216.76,362.62c-0.006,0-0.013,0-0.02,0H148.56c-5.523,0-10-4.478-10-10    c0-24.312,19.779-44.09,44.091-44.09c24.069,0,43.696,19.387,44.084,43.365c0.017,0.239,0.026,0.48,0.026,0.725    C226.76,358.143,222.283,362.62,216.76,362.62z M160.734,342.62h43.831c-3.805-8.306-12.197-14.09-21.915-14.09    S164.54,334.314,160.734,342.62z" fill="#444B54"/>
</g>
<g>
<path d="M216.03,294.91c-13.09,0-23.74-10.654-23.74-23.75c0-13.091,10.65-23.74,23.74-23.74    c13.096,0,23.75,10.649,23.75,23.74C239.78,284.256,229.126,294.91,216.03,294.91z M216.03,267.42c-2.063,0-3.74,1.678-3.74,3.74    c0,2.067,1.678,3.75,3.74,3.75c2.068,0,3.75-1.683,3.75-3.75C219.78,269.098,218.098,267.42,216.03,267.42z" fill="#444B54"/>
</g>
<g>
<path d="M279.31,296.41c-3.22-33.351-23.3-61.761-51.609-76.62c-13.47-7.061-28.79-11.061-45.05-11.061    c-53.631,0-97.11,43.48-97.11,97.11s43.479,97.11,97.11,97.11c53.63,0,97.109-43.48,97.109-97.11    C279.76,302.66,279.61,299.51,279.31,296.41z M135.52,271.16c0-7.59,6.16-13.74,13.75-13.74c7.591,0,13.74,6.15,13.74,13.74    s-6.149,13.75-13.74,13.75C141.68,284.91,135.52,278.75,135.52,271.16z M148.56,352.62c0-18.83,15.261-34.09,34.091-34.09    s34.09,15.26,34.09,34.09H148.56z M216.03,284.91c-7.59,0-13.74-6.16-13.74-13.75s6.15-13.74,13.74-13.74s13.75,6.15,13.75,13.74    S223.62,284.91,216.03,284.91z" fill="#D9DCE1"/>
<path d="M182.65,412.95c-59.061,0-107.11-48.05-107.11-107.11s48.049-107.11,107.11-107.11    c17.278,0,34.461,4.22,49.692,12.203c32.165,16.883,53.441,48.477,56.92,84.517c0.33,3.393,0.497,6.891,0.497,10.391    C289.76,364.9,241.711,412.95,182.65,412.95z M182.65,218.729c-48.033,0-87.11,39.077-87.11,87.11s39.078,87.11,87.11,87.11    c48.032,0,87.109-39.077,87.109-87.11c0-2.857-0.136-5.705-0.403-8.464c-2.829-29.306-20.139-54.998-46.304-68.731    C210.503,222.066,196.908,218.729,182.65,218.729z M216.74,362.62H148.56c-5.523,0-10-4.478-10-10    c0-24.312,19.779-44.09,44.091-44.09c24.311,0,44.09,19.778,44.09,44.09C226.74,358.143,222.263,362.62,216.74,362.62z     M160.734,342.62h43.831c-3.805-8.306-12.197-14.09-21.915-14.09S164.54,334.314,160.734,342.62z M216.03,294.91    c-13.09,0-23.74-10.654-23.74-23.75c0-13.091,10.65-23.74,23.74-23.74c13.096,0,23.75,10.649,23.75,23.74    C239.78,284.256,229.126,294.91,216.03,294.91z M216.03,267.42c-2.063,0-3.74,1.678-3.74,3.74c0,2.067,1.678,3.75,3.74,3.75    c2.068,0,3.75-1.683,3.75-3.75C219.78,269.098,218.098,267.42,216.03,267.42z M149.27,294.91c-13.096,0-23.75-10.654-23.75-23.75    c0-13.091,10.654-23.74,23.75-23.74c13.09,0,23.74,10.649,23.74,23.74C173.01,284.256,162.36,294.91,149.27,294.91z     M149.27,267.42c-2.068,0-3.75,1.678-3.75,3.74c0,2.067,1.682,3.75,3.75,3.75c2.063,0,3.74-1.683,3.74-3.75    C153.01,269.098,151.332,267.42,149.27,267.42z" fill="#444B54"/>
</g>
<g>
<path d="M149.27,294.91c-13.096,0-23.75-10.654-23.75-23.75c0-13.091,10.654-23.74,23.75-23.74    c13.09,0,23.74,10.649,23.74,23.74C173.01,284.256,162.36,294.91,149.27,294.91z M149.27,267.42c-2.068,0-3.75,1.678-3.75,3.74    c0,2.067,1.682,3.75,3.75,3.75c2.063,0,3.74-1.683,3.74-3.75C153.01,269.098,151.332,267.42,149.27,267.42z" fill="#444B54"/>
</g>
<g>
<path d="M216.03,294.91c-13.09,0-23.74-10.654-23.74-23.75c0-13.091,10.65-23.74,23.74-23.74    c13.096,0,23.75,10.649,23.75,23.74C239.78,284.256,229.126,294.91,216.03,294.91z M216.03,267.42c-2.063,0-3.74,1.678-3.74,3.74    c0,2.067,1.678,3.75,3.74,3.75c2.068,0,3.75-1.683,3.75-3.75C219.78,269.098,218.098,267.42,216.03,267.42z" fill="#444B54"/>
</g>
<g>
<path d="M292.29,197.455c-13.342,0-24.197-10.855-24.197-24.199s10.855-24.2,24.197-24.2    c13.344,0,24.2,10.856,24.2,24.2S305.634,197.455,292.29,197.455z M292.29,169.056c-2.314,0-4.197,1.884-4.197,4.2    c0,2.315,1.883,4.199,4.197,4.199c2.316,0,4.2-1.884,4.2-4.199C296.49,170.939,294.606,169.056,292.29,169.056z" fill="#444B54"/>
</g>
<g>
<path d="M361.257,197.455c-13.343,0-24.198-10.855-24.198-24.199s10.855-24.2,24.198-24.2    c13.343,0,24.199,10.856,24.199,24.2S374.6,197.455,361.257,197.455z M361.257,169.056c-2.315,0-4.198,1.884-4.198,4.2    c0,2.315,1.883,4.199,4.198,4.199c2.315,0,4.199-1.884,4.199-4.199C365.456,170.939,363.572,169.056,361.257,169.056z" fill="#444B54"/>
</g>
</g>
</svg>