<?xml version="1.0" encoding="iso-8859-1"?>
<!-- Uploaded to: SVG Repo, www.svgrepo.com, Generator: SVG Repo Mixer Tools -->
<svg fill="#000000" height="800px" width="800px" version="1.1" id="Layer_1" xmlns="http://www.w3.org/2000/svg" xmlns:xlink="http://www.w3.org/1999/xlink" 
	 viewBox="0 0 502.664 502.664" xml:space="preserve">
<g transform="translate(1 1)">
	<g>
		<g>
			<path d="M409.962,260.671l5.297-5.297c15.007-14.124,19.421-43.255,3.531-59.145c-5.297-5.297-13.241-8.828-21.186-9.71
				c14.124-15.007,18.538-43.255,2.648-59.145c-6.179-5.297-13.241-8.828-21.186-9.71L428.5,68.23
				c15.007-14.124,19.421-43.255,3.531-59.145c-15.89-15.89-44.138-11.476-57.379,2.648L242.237,144.147
				c6.179-17.655,9.71-35.31,9.71-51.2c0-20.303-19.421-40.607-39.724-42.372c-7.062-0.883-29.131,0-34.428,34.428
				c-5.297,31.779-36.193,83.862-60.028,107.697c-50.317,50.317-40.607,105.048-35.31,122.703l-21.186,21.186
				c-3.531,3.531-3.531,8.828,0,12.359c3.531,3.531,8.828,3.531,12.359,0l24.717-24.717c2.648-1.766,3.531-6.179,1.766-8.828
				c-0.883-2.648-21.186-59.145,29.131-108.579c22.952-22.952,59.145-78.566,65.324-117.407c0.883-9.71,5.297-21.186,15.007-20.303
				c10.593,0.883,22.952,14.124,22.952,24.717c0,30.897-19.421,78.566-34.428,93.572c-1.766,1.766-2.648,4.414-2.648,6.179
				s0.883,4.414,2.648,6.179c3.531,3.531,8.828,3.531,12.359,0L387.01,23.209c8.828-8.828,25.6-12.359,34.428-3.531
				c7.945,8.828,5.297,25.6-3.531,34.428l-75.034,75.034l-62.676,62.676c-3.531,3.531-3.531,8.828,0,12.359
				c3.531,3.531,8.828,3.531,12.359,0l62.676-62.676c8.828-7.945,25.6-11.476,34.428-2.648c7.945,8.828,5.297,25.6-3.531,34.428
				l-68.855,68.855c-3.531,3.531-3.531,8.828,0,12.359c3.531,3.531,8.828,3.531,12.359,0l44.138-43.255
				c8.828-8.828,25.6-12.359,34.428-3.531c7.945,8.828,5.297,25.6-3.531,34.428l-30.014,30.014
				c-0.883,0.883-0.883,0.883-1.766,1.766l-24.717,24.717c-3.531,3.531-3.531,8.828,0,12.359s8.828,3.531,12.359,0l26.483-25.6
				c8.828-7.062,25.6-9.71,33.545-1.766c7.945,8.828,5.297,25.6-3.531,34.428l-87.393,87.393
				c-48.552,47.669-48.552,47.669-89.159,53.848c-1.509,0-2.91,0.629-4.071,1.62c-0.426,0.303-0.838,0.64-1.225,1.028
				l-24.717,24.717c-3.531,3.531-3.531,8.828,0,12.359c1.766,1.766,3.531,2.648,6.179,2.648s4.414-0.883,6.179-2.648l22.627-22.627
				c42.801-7.497,45.664-10.354,94.78-59.469l87.393-87.393c15.007-15.007,19.421-43.255,3.531-59.145
				C424.969,265.085,417.906,261.554,409.962,260.671z"/>
			<path d="M183.975,353.361c-3.531-3.531-8.828-3.531-12.359,0c-3.531,3.531-3.531,8.828,0,12.359l17.655,17.655
				c1.766,1.766,3.531,2.648,6.179,2.648s4.414-0.883,6.179-2.648c3.531-3.531,3.531-8.828,0-12.359L183.975,353.361z"/>
			<path d="M148.665,371.016c-3.531-3.531-8.828-3.531-12.359,0c-3.531,3.531-3.531,8.828,0,12.359l35.31,35.31
				c1.766,1.766,3.531,2.648,6.179,2.648c2.648,0,4.414-0.883,6.179-2.648c3.531-3.531,3.531-8.828,0-12.359L148.665,371.016z"/>
		</g>
	</g>
</g>
</svg>